<svg width="1883" height="923" xmlns="http://www.w3.org/2000/svg"><g><path d="M-110,-154L-121,1157L-89,71Z" fill="#ffbca5" stroke="#ffbca5"/><path d="M-110,-154L-89,71L105,-104Z" fill="#fff5ef" stroke="#fff5ef"/><path d="M-110,-154L105,-104L535,-151Z" fill="#fee5db" stroke="#fee5db"/><path d="M-110,-154L535,-151L1264,-164Z" fill="#fec6b7" stroke="#fec6b7"/><path d="M105,-104L-89,71L61,77Z" fill="#ffeee6" stroke="#ffeee6"/><path d="M105,-104L61,77L255,151Z" fill="#fee3d6" stroke="#fee3d6"/><path d="M105,-104L255,151L366,-50Z" fill="#fee1d5" stroke="#fee1d5"/><path d="M105,-104L366,-50L535,-151Z" fill="#fedacc" stroke="#fedacc"/><path d="M366,-50L255,151L525,146Z" fill="#feccb5" stroke="#feccb5"/><path d="M366,-50L525,146L535,-151Z" fill="#fecebf" stroke="#fecebf"/><path d="M535,-151L525,146L694,-134Z" fill="#fdc4b5" stroke="#fdc4b5"/><path d="M535,-151L694,-134L1264,-164Z" fill="#faaea1" stroke="#faaea1"/><path d="M694,-134L525,146L642,166Z" fill="#fdb9a4" stroke="#fdb9a4"/><path d="M694,-134L642,166L897,-41Z" fill="#fdb6a6" stroke="#fdb6a6"/><path d="M694,-134L897,-41L1264,-164Z" fill="#f6a59b" stroke="#f6a59b"/><path d="M897,-41L642,166L924,41Z" fill="#fba895" stroke="#fba895"/><path d="M897,-41L924,41L1081,-38Z" fill="#f5a39b" stroke="#f5a39b"/><path d="M897,-41L1081,-38L1264,-164Z" fill="#f19a95" stroke="#f19a95"/><path d="M1081,-38L924,41L1066,94Z" fill="#f39b91" stroke="#f39b91"/><path d="M1081,-38L1066,94L1310,121Z" fill="#ed8e85" stroke="#ed8e85"/><path d="M1081,-38L1310,121L1264,-164Z" fill="#e89391" stroke="#e89391"/><path d="M1264,-164L1310,121L1454,-95Z" fill="#df8e8e" stroke="#df8e8e"/><path d="M1264,-164L1454,-95L1717,-147Z" fill="#d4888b" stroke="#d4888b"/><path d="M1264,-164L1717,-147L2037,-151Z" fill="#c68186" stroke="#c68186"/><path d="M1454,-95L1310,121L1569,87Z" fill="#d78583" stroke="#d78583"/><path d="M1454,-95L1569,87L1717,-147Z" fill="#cd8489" stroke="#cd8489"/><path d="M1717,-147L1569,87L1669,137Z" fill="#c77e81" stroke="#c77e81"/><path d="M1717,-147L1669,137L1928,-82Z" fill="#be8084" stroke="#be8084"/><path d="M1717,-147L1928,-82L2037,-151Z" fill="#b58082" stroke="#b58082"/><path d="M1928,-82L1669,137L1944,148Z" fill="#b87774" stroke="#b87774"/><path d="M1928,-82L1944,148L2088,137Z" fill="#ae7771" stroke="#ae7771"/><path d="M1928,-82L2088,137L2037,-151Z" fill="#ac8080" stroke="#ac8080"/><path d="M2037,-151L2088,137L2168,269Z" fill="#a6756d" stroke="#a6756d"/><path d="M-89,71L-121,1157L-53,365Z" fill="#ff988e" stroke="#ff988e"/><path d="M-89,71L-53,365L61,77Z" fill="#ffdec9" stroke="#ffdec9"/><path d="M61,77L-53,365L92,358Z" fill="#ffc6ad" stroke="#ffc6ad"/><path d="M61,77L92,358L255,151Z" fill="#feceb4" stroke="#feceb4"/><path d="M255,151L92,358L354,267Z" fill="#feb99c" stroke="#feb99c"/><path d="M255,151L354,267L525,146Z" fill="#febe9e" stroke="#febe9e"/><path d="M525,146L354,267L456,366Z" fill="#fea887" stroke="#fea887"/><path d="M525,146L456,366L642,166Z" fill="#fea786" stroke="#fea786"/><path d="M642,166L456,366L737,250Z" fill="#fd9978" stroke="#fd9978"/><path d="M642,166L737,250L924,41Z" fill="#fda082" stroke="#fda082"/><path d="M924,41L737,250L905,321Z" fill="#f99072" stroke="#f99072"/><path d="M924,41L905,321L1066,94Z" fill="#f59079" stroke="#f59079"/><path d="M1066,94L905,321L1053,317Z" fill="#f37b62" stroke="#f37b62"/><path d="M1066,94L1053,317L1310,121Z" fill="#ee7f6b" stroke="#ee7f6b"/><path d="M1310,121L1053,317L1357,297Z" fill="#e66c59" stroke="#e66c59"/><path d="M1310,121L1357,297L1546,283Z" fill="#da6858" stroke="#da6858"/><path d="M1310,121L1546,283L1569,87Z" fill="#d57366" stroke="#d57366"/><path d="M1569,87L1546,283L1669,137Z" fill="#cc6e63" stroke="#cc6e63"/><path d="M1669,137L1546,283L1672,253Z" fill="#c96255" stroke="#c96255"/><path d="M1669,137L1672,253L1876,264Z" fill="#c16055" stroke="#c16055"/><path d="M1669,137L1876,264L1944,148Z" fill="#ba685a" stroke="#ba685a"/><path d="M1944,148L1876,264L2168,269Z" fill="#ad5e4d" stroke="#ad5e4d"/><path d="M1944,148L2168,269L2088,137Z" fill="#a86857" stroke="#a86857"/><path d="M-53,365L-121,1157L-70,918Z" fill="#d68784" stroke="#d68784"/><path d="M-53,365L-70,918L-31,697Z" fill="#ee8c85" stroke="#ee8c85"/><path d="M-53,365L-31,697L-34,446Z" fill="#ff9a8d" stroke="#ff9a8d"/><path d="M-53,365L-34,446L92,358Z" fill="#ffae96" stroke="#ffae96"/><path d="M92,358L-34,446L61,563Z" fill="#ff9e8b" stroke="#ff9e8b"/><path d="M92,358L61,563L332,503Z" fill="#fe917d" stroke="#fe917d"/><path d="M92,358L332,503L354,267Z" fill="#fe9d7f" stroke="#fe9d7f"/><path d="M354,267L332,503L456,366Z" fill="#fe9473" stroke="#fe9473"/><path d="M456,366L332,503L462,565Z" fill="#fe7d64" stroke="#fe7d64"/><path d="M456,366L462,565L671,510Z" fill="#fe7259" stroke="#fe7259"/><path d="M456,366L671,510L737,250Z" fill="#fd7f5d" stroke="#fd7f5d"/><path d="M737,250L671,510L905,321Z" fill="#fd7552" stroke="#fd7552"/><path d="M905,321L671,510L929,545Z" fill="#fa5c43" stroke="#fa5c43"/><path d="M905,321L929,545L1039,530Z" fill="#f5513c" stroke="#f5513c"/><path d="M905,321L1039,530L1053,317Z" fill="#f45c43" stroke="#f45c43"/><path d="M1053,317L1039,530L1340,487Z" fill="#ee4636" stroke="#ee4636"/><path d="M1053,317L1340,487L1357,297Z" fill="#e6513d" stroke="#e6513d"/><path d="M1357,297L1340,487L1533,457Z" fill="#da4234" stroke="#da4234"/><path d="M1357,297L1533,457L1546,283Z" fill="#d44d3d" stroke="#d44d3d"/><path d="M1546,283L1533,457L1672,253Z" fill="#cc4c3e" stroke="#cc4c3e"/><path d="M1672,253L1533,457L1740,463Z" fill="#c83d31" stroke="#c83d31"/><path d="M1672,253L1740,463L1876,264Z" fill="#bf493b" stroke="#bf493b"/><path d="M1876,264L1740,463L1944,542Z" fill="#b83528" stroke="#b83528"/><path d="M1876,264L1944,542L2155,497Z" fill="#ae3225" stroke="#ae3225"/><path d="M1876,264L2155,497L2168,269Z" fill="#a84532" stroke="#a84532"/><path d="M2168,269L2155,497L2156,703Z" fill="#a1271e" stroke="#a1271e"/><path d="M-34,446L-31,697L61,563Z" fill="#fc8d83" stroke="#fc8d83"/><path d="M61,563L-31,697L119,758Z" fill="#ec847c" stroke="#ec847c"/><path d="M61,563L119,758L355,646Z" fill="#ee7b6f" stroke="#ee7b6f"/><path d="M61,563L355,646L332,503Z" fill="#fc7a6b" stroke="#fc7a6b"/><path d="M332,503L355,646L462,565Z" fill="#fb705e" stroke="#fb705e"/><path d="M462,565L355,646L565,648Z" fill="#f36755" stroke="#f36755"/><path d="M462,565L565,648L671,510Z" fill="#fa604d" stroke="#fa604d"/><path d="M671,510L565,648L733,735Z" fill="#f15443" stroke="#f15443"/><path d="M671,510L733,735L929,545Z" fill="#f64c3a" stroke="#f64c3a"/><path d="M929,545L733,735L908,754Z" fill="#e64133" stroke="#e64133"/><path d="M929,545L908,754L1042,725Z" fill="#e2392e" stroke="#e2392e"/><path d="M929,545L1042,725L1039,530Z" fill="#ec392e" stroke="#ec392e"/><path d="M1039,530L1042,725L1351,714Z" fill="#de2c26" stroke="#de2c26"/><path d="M1039,530L1351,714L1340,487Z" fill="#e32c27" stroke="#e32c27"/><path d="M1340,487L1351,714L1533,642Z" fill="#d02322" stroke="#d02322"/><path d="M1340,487L1533,642L1533,457Z" fill="#d52925" stroke="#d52925"/><path d="M1533,457L1533,642L1740,463Z" fill="#cb2523" stroke="#cb2523"/><path d="M1740,463L1533,642L1644,719Z" fill="#c01a1d" stroke="#c01a1d"/><path d="M1740,463L1644,719L1850,712Z" fill="#b4171a" stroke="#b4171a"/><path d="M1740,463L1850,712L1944,542Z" fill="#b61a19" stroke="#b61a19"/><path d="M1944,542L1850,712L2156,703Z" fill="#9f1614" stroke="#9f1614"/><path d="M1944,542L2156,703L2155,497Z" fill="#a21916" stroke="#a21916"/><path d="M-31,697L-70,918L78,846Z" fill="#d5817d" stroke="#d5817d"/><path d="M-31,697L78,846L119,758Z" fill="#dd7f78" stroke="#dd7f78"/><path d="M119,758L78,846L314,940Z" fill="#d0726b" stroke="#d0726b"/><path d="M119,758L314,940L355,646Z" fill="#db6f64" stroke="#db6f64"/><path d="M355,646L314,940L540,939Z" fill="#d16155" stroke="#d16155"/><path d="M355,646L540,939L565,648Z" fill="#e05e50" stroke="#e05e50"/><path d="M565,648L540,939L680,882Z" fill="#d35143" stroke="#d35143"/><path d="M565,648L680,882L733,735Z" fill="#de4e3f" stroke="#de4e3f"/><path d="M733,735L680,882L882,878Z" fill="#d14134" stroke="#d14134"/><path d="M733,735L882,878L908,754Z" fill="#d53d31" stroke="#d53d31"/><path d="M908,754L882,878L1088,914Z" fill="#c7312a" stroke="#c7312a"/><path d="M908,754L1088,914L1042,725Z" fill="#cd2f29" stroke="#cd2f29"/><path d="M1042,725L1088,914L1281,924Z" fill="#bf2222" stroke="#bf2222"/><path d="M1042,725L1281,924L1351,714Z" fill="#c32221" stroke="#c32221"/><path d="M1351,714L1281,924L1438,850Z" fill="#b21b1d" stroke="#b21b1d"/><path d="M1351,714L1438,850L1533,642Z" fill="#bb1c1e" stroke="#bb1c1e"/><path d="M1533,642L1438,850L1644,719Z" fill="#b3181c" stroke="#b3181c"/><path d="M1644,719L1438,850L1643,887Z" fill="#a41319" stroke="#a41319"/><path d="M1644,719L1643,887L1850,712Z" fill="#a01017" stroke="#a01017"/><path d="M1850,712L1643,887L1853,913Z" fill="#910d14" stroke="#910d14"/><path d="M1850,712L1853,913L2057,948Z" fill="#830c10" stroke="#830c10"/><path d="M1850,712L2057,948L2156,703Z" fill="#870f10" stroke="#870f10"/><path d="M2156,703L2057,948L2141,1058Z" fill="#6d0a0d" stroke="#6d0a0d"/><path d="M-70,918L-121,1157L79,1133Z" fill="#ae7779" stroke="#ae7779"/><path d="M-70,918L79,1133L78,846Z" fill="#be7775" stroke="#be7775"/><path d="M78,846L79,1133L314,940Z" fill="#bc6d69" stroke="#bc6d69"/><path d="M314,940L79,1133L306,1098Z" fill="#af645f" stroke="#af645f"/><path d="M314,940L306,1098L547,1081Z" fill="#b15951" stroke="#b15951"/><path d="M314,940L547,1081L540,939Z" fill="#ba554b" stroke="#ba554b"/><path d="M540,939L547,1081L680,882Z" fill="#bc4b40" stroke="#bc4b40"/><path d="M680,882L547,1081L696,1123Z" fill="#b34339" stroke="#b34339"/><path d="M680,882L696,1123L882,878Z" fill="#bd3c31" stroke="#bd3c31"/><path d="M882,878L696,1123L885,1168Z" fill="#ac322b" stroke="#ac322b"/><path d="M882,878L885,1168L1088,914Z" fill="#b22b27" stroke="#b22b27"/><path d="M1088,914L885,1168L1163,1063Z" fill="#a52020" stroke="#a52020"/><path d="M1088,914L1163,1063L1281,924Z" fill="#aa1b1e" stroke="#aa1b1e"/><path d="M1281,924L1163,1063L1281,1058Z" fill="#9e161b" stroke="#9e161b"/><path d="M1281,924L1281,1058L1438,850Z" fill="#a2161b" stroke="#a2161b"/><path d="M1438,850L1281,1058L1453,1147Z" fill="#921017" stroke="#921017"/><path d="M1438,850L1453,1147L1643,887Z" fill="#920e16" stroke="#920e16"/><path d="M1643,887L1453,1147L1739,1138Z" fill="#7b0611" stroke="#7b0611"/><path d="M1643,887L1739,1138L1853,913Z" fill="#7d0610" stroke="#7d0610"/><path d="M1853,913L1739,1138L1923,1038Z" fill="#6e040d" stroke="#6e040d"/><path d="M1853,913L1923,1038L2057,948Z" fill="#70070c" stroke="#70070c"/><path d="M2057,948L1923,1038L2141,1058Z" fill="#61040a" stroke="#61040a"/><path d="M-121,1157L885,1168L79,1133Z" fill="#a05e58" stroke="#a05e58"/><path d="M79,1133L885,1168L696,1123Z" fill="#a1473f" stroke="#a1473f"/><path d="M79,1133L696,1123L306,1098Z" fill="#a55851" stroke="#a55851"/><path d="M306,1098L696,1123L547,1081Z" fill="#a84b43" stroke="#a84b43"/><path d="M885,1168L1739,1138L1453,1147Z" fill="#7f0e15" stroke="#7f0e15"/><path d="M885,1168L1453,1147L1163,1063Z" fill="#921519" stroke="#921519"/><path d="M1163,1063L1453,1147L1281,1058Z" fill="#8e1117" stroke="#8e1117"/><path d="M1739,1138L2141,1058L1923,1038Z" fill="#5f010a" stroke="#5f010a"/></g></svg>