<svg width="1883" height="923" xmlns="http://www.w3.org/2000/svg"><g><path d="M-34,-113L-140,311L-76,129Z" fill="#e7f5fd" stroke="#e7f5fd"/><path d="M-34,-113L-76,129L38,124Z" fill="#ebf5fc" stroke="#ebf5fc"/><path d="M-34,-113L38,124L150,-69Z" fill="#ecf4fa" stroke="#ecf4fa"/><path d="M-34,-113L150,-69L701,-139Z" fill="#e1eef6" stroke="#e1eef6"/><path d="M150,-69L38,124L330,42Z" fill="#e2f0f8" stroke="#e2f0f8"/><path d="M150,-69L330,42L311,-57Z" fill="#e1eef7" stroke="#e1eef7"/><path d="M150,-69L311,-57L701,-139Z" fill="#dbebf4" stroke="#dbebf4"/><path d="M311,-57L330,42L489,-68Z" fill="#dcebf5" stroke="#dcebf5"/><path d="M311,-57L489,-68L701,-139Z" fill="#d5e8f2" stroke="#d5e8f2"/><path d="M489,-68L330,42L514,149Z" fill="#d4e9f3" stroke="#d4e9f3"/><path d="M489,-68L514,149L731,47Z" fill="#cde5f1" stroke="#cde5f1"/><path d="M489,-68L731,47L701,-139Z" fill="#cee4f0" stroke="#cee4f0"/><path d="M701,-139L731,47L885,-78Z" fill="#c2dcec" stroke="#c2dcec"/><path d="M701,-139L885,-78L1169,-95Z" fill="#b6d4e8" stroke="#b6d4e8"/><path d="M701,-139L1169,-95L1259,-112Z" fill="#abcde4" stroke="#abcde4"/><path d="M701,-139L1259,-112L1730,-108Z" fill="#9ac2df" stroke="#9ac2df"/><path d="M701,-139L1730,-108L2090,-101Z" fill="#82b2d7" stroke="#82b2d7"/><path d="M885,-78L731,47L848,163Z" fill="#b9d9eb" stroke="#b9d9eb"/><path d="M885,-78L848,163L1078,79Z" fill="#aed2e7" stroke="#aed2e7"/><path d="M885,-78L1078,79L1169,-95Z" fill="#abcde4" stroke="#abcde4"/><path d="M1169,-95L1078,79L1262,73Z" fill="#9ec5e1" stroke="#9ec5e1"/><path d="M1169,-95L1262,73L1259,-112Z" fill="#9ac2df" stroke="#9ac2df"/><path d="M1259,-112L1262,73L1453,-68Z" fill="#92bddc" stroke="#92bddc"/><path d="M1259,-112L1453,-68L1730,-108Z" fill="#85b4d8" stroke="#85b4d8"/><path d="M1453,-68L1262,73L1565,126Z" fill="#84b6d9" stroke="#84b6d9"/><path d="M1453,-68L1565,126L1730,-108Z" fill="#80aed5" stroke="#80aed5"/><path d="M1730,-108L1565,126L1682,150Z" fill="#7aa8d3" stroke="#7aa8d3"/><path d="M1730,-108L1682,150L1832,40Z" fill="#7da4d0" stroke="#7da4d0"/><path d="M1730,-108L1832,40L1965,-62Z" fill="#809fcd" stroke="#809fcd"/><path d="M1730,-108L1965,-62L2090,-101Z" fill="#809acb" stroke="#809acb"/><path d="M1965,-62L1832,40L2095,50Z" fill="#7f98ca" stroke="#7f98ca"/><path d="M1965,-62L2095,50L2090,-101Z" fill="#8093c7" stroke="#8093c7"/><path d="M2090,-101L2095,50L2129,317Z" fill="#768ec6" stroke="#768ec6"/><path d="M-76,129L-140,311L38,124Z" fill="#ddf2fc" stroke="#ddf2fc"/><path d="M38,124L-140,311L78,364Z" fill="#d2effb" stroke="#d2effb"/><path d="M38,124L78,364L314,276Z" fill="#ccebf9" stroke="#ccebf9"/><path d="M38,124L314,276L330,42Z" fill="#d3ecf7" stroke="#d3ecf7"/><path d="M330,42L314,276L514,149Z" fill="#cae8f4" stroke="#cae8f4"/><path d="M514,149L314,276L546,313Z" fill="#bce4f3" stroke="#bce4f3"/><path d="M514,149L546,313L691,286Z" fill="#b6e0f1" stroke="#b6e0f1"/><path d="M514,149L691,286L731,47Z" fill="#bce0f0" stroke="#bce0f0"/><path d="M731,47L691,286L848,163Z" fill="#b2d9ed" stroke="#b2d9ed"/><path d="M848,163L691,286L873,363Z" fill="#a2d5eb" stroke="#a2d5eb"/><path d="M848,163L873,363L1045,336Z" fill="#96cde8" stroke="#96cde8"/><path d="M848,163L1045,336L1078,79Z" fill="#9acbe6" stroke="#9acbe6"/><path d="M1078,79L1045,336L1257,303Z" fill="#89c3e2" stroke="#89c3e2"/><path d="M1078,79L1257,303L1262,73Z" fill="#8dc0e0" stroke="#8dc0e0"/><path d="M1262,73L1257,303L1565,126Z" fill="#7db7db" stroke="#7db7db"/><path d="M1565,126L1257,303L1517,338Z" fill="#6cb0d9" stroke="#6cb0d9"/><path d="M1565,126L1517,338L1691,284Z" fill="#65a8d5" stroke="#65a8d5"/><path d="M1565,126L1691,284L1682,150Z" fill="#6ba6d3" stroke="#6ba6d3"/><path d="M1682,150L1691,284L1832,40Z" fill="#6fa2d0" stroke="#6fa2d0"/><path d="M1832,40L1691,284L1902,366Z" fill="#679cce" stroke="#679cce"/><path d="M1832,40L1902,366L2095,50Z" fill="#6f96cb" stroke="#6f96cb"/><path d="M2095,50L1902,366L2129,317Z" fill="#658ec8" stroke="#658ec8"/><path d="M-140,311L-161,443L78,364Z" fill="#c4e7fa" stroke="#c4e7fa"/><path d="M78,364L-161,443L121,489Z" fill="#b2dcf5" stroke="#b2dcf5"/><path d="M78,364L121,489L233,522Z" fill="#a6d5f1" stroke="#a6d5f1"/><path d="M78,364L233,522L314,276Z" fill="#b2def4" stroke="#b2def4"/><path d="M314,276L233,522L526,512Z" fill="#a0d3ee" stroke="#a0d3ee"/><path d="M314,276L526,512L546,313Z" fill="#a9daf0" stroke="#a9daf0"/><path d="M546,313L526,512L651,520Z" fill="#92ccea" stroke="#92ccea"/><path d="M546,313L651,520L691,286Z" fill="#9fd5ed" stroke="#9fd5ed"/><path d="M691,286L651,520L857,463Z" fill="#8cc8e8" stroke="#8cc8e8"/><path d="M691,286L857,463L873,363Z" fill="#90cae8" stroke="#90cae8"/><path d="M873,363L857,463L1045,336Z" fill="#82c2e4" stroke="#82c2e4"/><path d="M1045,336L857,463L1067,533Z" fill="#71b6df" stroke="#71b6df"/><path d="M1045,336L1067,533L1257,303Z" fill="#71b6de" stroke="#71b6de"/><path d="M1257,303L1067,533L1267,533Z" fill="#5ca8d9" stroke="#5ca8d9"/><path d="M1257,303L1267,533L1472,495Z" fill="#54a2d6" stroke="#54a2d6"/><path d="M1257,303L1472,495L1517,338Z" fill="#5aa7d6" stroke="#5aa7d6"/><path d="M1517,338L1472,495L1691,548Z" fill="#3e93ce" stroke="#3e93ce"/><path d="M1517,338L1691,548L1691,284Z" fill="#4d99cf" stroke="#4d99cf"/><path d="M1691,284L1691,548L1902,366Z" fill="#4b90cb" stroke="#4b90cb"/><path d="M1902,366L1691,548L1955,522Z" fill="#3a80c5" stroke="#3a80c5"/><path d="M1902,366L1955,522L2085,495Z" fill="#3e7bc2" stroke="#3e7bc2"/><path d="M1902,366L2085,495L2129,317Z" fill="#4c81c4" stroke="#4c81c4"/><path d="M2129,317L2085,495L2160,938Z" fill="#2461b8" stroke="#2461b8"/><path d="M-161,443L-152,943L-116,650Z" fill="#86beec" stroke="#86beec"/><path d="M-161,443L-116,650L121,489Z" fill="#a1d1f2" stroke="#a1d1f2"/><path d="M121,489L-116,650L54,697Z" fill="#8cc3ec" stroke="#8cc3ec"/><path d="M121,489L54,697L233,522Z" fill="#8fc6ec" stroke="#8fc6ec"/><path d="M233,522L54,697L326,636Z" fill="#81bde9" stroke="#81bde9"/><path d="M233,522L326,636L526,512Z" fill="#86c2e9" stroke="#86c2e9"/><path d="M526,512L326,636L558,701Z" fill="#74b7e4" stroke="#74b7e4"/><path d="M526,512L558,701L644,642Z" fill="#6eb4e2" stroke="#6eb4e2"/><path d="M526,512L644,642L651,520Z" fill="#79bbe5" stroke="#79bbe5"/><path d="M651,520L644,642L857,463Z" fill="#74b8e2" stroke="#74b8e2"/><path d="M857,463L644,642L942,677Z" fill="#61abdd" stroke="#61abdd"/><path d="M857,463L942,677L1067,533Z" fill="#5ca8db" stroke="#5ca8db"/><path d="M1067,533L942,677L1113,708Z" fill="#4398d4" stroke="#4398d4"/><path d="M1067,533L1113,708L1267,533Z" fill="#4498d3" stroke="#4498d3"/><path d="M1267,533L1113,708L1329,704Z" fill="#308bce" stroke="#308bce"/><path d="M1267,533L1329,704L1472,495Z" fill="#358ece" stroke="#358ece"/><path d="M1472,495L1329,704L1552,708Z" fill="#2081c9" stroke="#2081c9"/><path d="M1472,495L1552,708L1691,548Z" fill="#2481c8" stroke="#2481c8"/><path d="M1691,548L1552,708L1766,758Z" fill="#116fc1" stroke="#116fc1"/><path d="M1691,548L1766,758L1845,753Z" fill="#0e67bd" stroke="#0e67bd"/><path d="M1691,548L1845,753L1955,522Z" fill="#1f6fbf" stroke="#1f6fbf"/><path d="M1955,522L1845,753L2086,729Z" fill="#125fb8" stroke="#125fb8"/><path d="M1955,522L2086,729L2085,495Z" fill="#2466ba" stroke="#2466ba"/><path d="M2085,495L2086,729L2160,938Z" fill="#074fb2" stroke="#074fb2"/><path d="M-116,650L-152,943L65,843Z" fill="#73aae4" stroke="#73aae4"/><path d="M-116,650L65,843L54,697Z" fill="#74b3e7" stroke="#74b3e7"/><path d="M54,697L65,843L303,851Z" fill="#68a6e1" stroke="#68a6e1"/><path d="M54,697L303,851L326,636Z" fill="#69aee3" stroke="#69aee3"/><path d="M326,636L303,851L558,701Z" fill="#60a9e0" stroke="#60a9e0"/><path d="M558,701L303,851L564,911Z" fill="#579ada" stroke="#579ada"/><path d="M558,701L564,911L655,837Z" fill="#5198d8" stroke="#5198d8"/><path d="M558,701L655,837L644,642Z" fill="#55a3dc" stroke="#55a3dc"/><path d="M644,642L655,837L942,677Z" fill="#4c9dd9" stroke="#4c9dd9"/><path d="M942,677L655,837L884,899Z" fill="#3e8dd3" stroke="#3e8dd3"/><path d="M942,677L884,899L1100,912Z" fill="#3181cd" stroke="#3181cd"/><path d="M942,677L1100,912L1113,708Z" fill="#2a85ce" stroke="#2a85ce"/><path d="M1113,708L1100,912L1316,918Z" fill="#2073c7" stroke="#2073c7"/><path d="M1113,708L1316,918L1329,704Z" fill="#1978c7" stroke="#1978c7"/><path d="M1329,704L1316,918L1538,939Z" fill="#0d65c0" stroke="#0d65c0"/><path d="M1329,704L1538,939L1552,708Z" fill="#066bc1" stroke="#066bc1"/><path d="M1552,708L1538,939L1665,952Z" fill="#0059ba" stroke="#0059ba"/><path d="M1552,708L1665,952L1766,758Z" fill="#005dba" stroke="#005dba"/><path d="M1766,758L1665,952L1833,870Z" fill="#0050b5" stroke="#0050b5"/><path d="M1766,758L1833,870L1845,753Z" fill="#0056b7" stroke="#0056b7"/><path d="M1845,753L1833,870L2086,729Z" fill="#0051b4" stroke="#0051b4"/><path d="M2086,729L1833,870L2160,938Z" fill="#0043ae" stroke="#0043ae"/><path d="M-152,943L-112,1098L80,1063Z" fill="#728ad9" stroke="#728ad9"/><path d="M-152,943L80,1063L65,843Z" fill="#6f95dc" stroke="#6f95dc"/><path d="M65,843L80,1063L260,1060Z" fill="#688cd8" stroke="#688cd8"/><path d="M65,843L260,1060L303,851Z" fill="#6593da" stroke="#6593da"/><path d="M303,851L260,1060L450,1089Z" fill="#5e84d3" stroke="#5e84d3"/><path d="M303,851L450,1089L564,911Z" fill="#5989d4" stroke="#5989d4"/><path d="M564,911L450,1089L719,1050Z" fill="#527ccf" stroke="#527ccf"/><path d="M564,911L719,1050L655,837Z" fill="#4e85d1" stroke="#4e85d1"/><path d="M655,837L719,1050L884,899Z" fill="#4480ce" stroke="#4480ce"/><path d="M884,899L719,1050L903,1141Z" fill="#3d6dc7" stroke="#3d6dc7"/><path d="M884,899L903,1141L1100,912Z" fill="#326cc6" stroke="#326cc6"/><path d="M1100,912L903,1141L1158,1040Z" fill="#2a60c1" stroke="#2a60c1"/><path d="M1100,912L1158,1040L1316,918Z" fill="#1e63c1" stroke="#1e63c1"/><path d="M1316,918L1158,1040L1369,1073Z" fill="#1756bb" stroke="#1756bb"/><path d="M1316,918L1369,1073L1538,939Z" fill="#0c54b9" stroke="#0c54b9"/><path d="M1538,939L1369,1073L1492,1147Z" fill="#0646b4" stroke="#0646b4"/><path d="M1538,939L1492,1147L1665,952Z" fill="#0045b3" stroke="#0045b3"/><path d="M1665,952L1492,1147L1732,1059Z" fill="#003caf" stroke="#003caf"/><path d="M1665,952L1732,1059L1833,870Z" fill="#0043b0" stroke="#0043b0"/><path d="M1833,870L1732,1059L1915,1088Z" fill="#0037ac" stroke="#0037ac"/><path d="M1833,870L1915,1088L2160,938Z" fill="#0035aa" stroke="#0035aa"/><path d="M2160,938L1915,1088L2062,1133Z" fill="#0024a3" stroke="#0024a3"/><path d="M-112,1098L903,1141L450,1089Z" fill="#5a73cd" stroke="#5a73cd"/><path d="M-112,1098L450,1089L80,1063Z" fill="#687ed3" stroke="#687ed3"/><path d="M80,1063L450,1089L260,1060Z" fill="#627dd2" stroke="#627dd2"/><path d="M450,1089L903,1141L719,1050Z" fill="#4a6cc8" stroke="#4a6cc8"/><path d="M903,1141L1492,1147L1369,1073Z" fill="#1948b7" stroke="#1948b7"/><path d="M903,1141L1369,1073L1158,1040Z" fill="#2254bb" stroke="#2254bb"/><path d="M1492,1147L2062,1133L1915,1088Z" fill="#0027a6" stroke="#0027a6"/><path d="M1492,1147L1915,1088L1732,1059Z" fill="#0031ab" stroke="#0031ab"/></g></svg>