<svg width="1632" height="902" xmlns="http://www.w3.org/2000/svg"><g><path d="M-109,-145L-194,278L-74,108Z" fill="#ffffff" stroke="#ffffff"/><path d="M-109,-145L-74,108L164,-84Z" fill="#fcfefe" stroke="#fcfefe"/><path d="M-109,-145L164,-84L316,-104Z" fill="#f3f8fb" stroke="#f3f8fb"/><path d="M-109,-145L316,-104L881,-197Z" fill="#dfe9f3" stroke="#dfe9f3"/><path d="M164,-84L-74,108L136,78Z" fill="#f6fafc" stroke="#f6fafc"/><path d="M164,-84L136,78L340,91Z" fill="#edf4f9" stroke="#edf4f9"/><path d="M164,-84L340,91L316,-104Z" fill="#e7eff6" stroke="#e7eff6"/><path d="M316,-104L340,91L538,-84Z" fill="#dce7f2" stroke="#dce7f2"/><path d="M316,-104L538,-84L881,-197Z" fill="#cddaeb" stroke="#cddaeb"/><path d="M538,-84L340,91L655,63Z" fill="#d2e0ee" stroke="#d2e0ee"/><path d="M538,-84L655,63L881,-197Z" fill="#c7cee5" stroke="#c7cee5"/><path d="M881,-197L655,63L775,173Z" fill="#c6c5e0" stroke="#c6c5e0"/><path d="M881,-197L775,173L1017,112Z" fill="#c6b7d9" stroke="#c6b7d9"/><path d="M881,-197L1017,112L1011,-176Z" fill="#c5aed5" stroke="#c5aed5"/><path d="M881,-197L1011,-176L1690,-150Z" fill="#c292c5" stroke="#c292c5"/><path d="M1011,-176L1017,112L1216,40Z" fill="#c4a1cf" stroke="#c4a1cf"/><path d="M1011,-176L1216,40L1258,-114Z" fill="#c296c8" stroke="#c296c8"/><path d="M1011,-176L1258,-114L1690,-150Z" fill="#b985b7" stroke="#b985b7"/><path d="M1258,-114L1216,40L1490,50Z" fill="#b985b7" stroke="#b985b7"/><path d="M1258,-114L1490,50L1523,-96Z" fill="#aa81a9" stroke="#aa81a9"/><path d="M1258,-114L1523,-96L1690,-150Z" fill="#a180a0" stroke="#a180a0"/><path d="M1523,-96L1490,50L1690,-150Z" fill="#958095" stroke="#958095"/><path d="M1690,-150L1490,50L1720,167Z" fill="#8c808d" stroke="#8c808d"/><path d="M1690,-150L1720,167L2002,-66Z" fill="#808080" stroke="#808080"/><path d="M2002,-66L1720,167L2024,188Z" fill="#808080" stroke="#808080"/><path d="M-74,108L-194,278L198,415Z" fill="#e2f4ff" stroke="#e2f4ff"/><path d="M-74,108L198,415L136,78Z" fill="#e8f8fc" stroke="#e8f8fc"/><path d="M136,78L198,415L390,272Z" fill="#d2e9f7" stroke="#d2e9f7"/><path d="M136,78L390,272L340,91Z" fill="#dfeef6" stroke="#dfeef6"/><path d="M340,91L390,272L588,274Z" fill="#c8e1f0" stroke="#c8e1f0"/><path d="M340,91L588,274L655,63Z" fill="#cbdeed" stroke="#cbdeed"/><path d="M655,63L588,274L775,173Z" fill="#bfcfe6" stroke="#bfcfe6"/><path d="M775,173L588,274L761,332Z" fill="#adc3e4" stroke="#adc3e4"/><path d="M775,173L761,332L1025,378Z" fill="#a6addb" stroke="#a6addb"/><path d="M775,173L1025,378L1017,112Z" fill="#b4add6" stroke="#b4add6"/><path d="M1017,112L1025,378L1236,403Z" fill="#a391ce" stroke="#a391ce"/><path d="M1017,112L1236,403L1216,40Z" fill="#b795c8" stroke="#b795c8"/><path d="M1216,40L1236,403L1470,365Z" fill="#a07bb9" stroke="#a07bb9"/><path d="M1216,40L1470,365L1490,50Z" fill="#a881ad" stroke="#a881ad"/><path d="M1490,50L1470,365L1720,167Z" fill="#8a7e96" stroke="#8a7e96"/><path d="M1720,167L1470,365L1706,408Z" fill="#696d8c" stroke="#696d8c"/><path d="M1720,167L1706,408L2017,400Z" fill="#5c6b7d" stroke="#5c6b7d"/><path d="M1720,167L2017,400L2024,188Z" fill="#687780" stroke="#687780"/><path d="M-194,278L-141,1054L-142,577Z" fill="#cf9fd6" stroke="#cf9fd6"/><path d="M-194,278L-142,577L80,569Z" fill="#d3c6ed" stroke="#d3c6ed"/><path d="M-194,278L80,569L198,415Z" fill="#cdd2f2" stroke="#cdd2f2"/><path d="M198,415L80,569L341,537Z" fill="#c1b3e2" stroke="#c1b3e2"/><path d="M198,415L341,537L390,272Z" fill="#b8c5ea" stroke="#b8c5ea"/><path d="M390,272L341,537L588,274Z" fill="#b0c7eb" stroke="#b0c7eb"/><path d="M588,274L341,537L646,650Z" fill="#a4a2d9" stroke="#a4a2d9"/><path d="M588,274L646,650L761,332Z" fill="#9da7db" stroke="#9da7db"/><path d="M761,332L646,650L857,643Z" fill="#997dc6" stroke="#997dc6"/><path d="M761,332L857,643L1025,378Z" fill="#9a85ca" stroke="#9a85ca"/><path d="M1025,378L857,643L1064,611Z" fill="#9862b9" stroke="#9862b9"/><path d="M1025,378L1064,611L1236,403Z" fill="#9767bb" stroke="#9767bb"/><path d="M1236,403L1064,611L1329,504Z" fill="#954ead" stroke="#954ead"/><path d="M1236,403L1329,504L1470,365Z" fill="#8958a7" stroke="#8958a7"/><path d="M1470,365L1329,504L1451,608Z" fill="#7f4495" stroke="#7f4495"/><path d="M1470,365L1451,608L1678,591Z" fill="#6e3b82" stroke="#6e3b82"/><path d="M1470,365L1678,591L1706,408Z" fill="#624c7f" stroke="#624c7f"/><path d="M1706,408L1678,591L1962,596Z" fill="#533866" stroke="#533866"/><path d="M1706,408L1962,596L2017,400Z" fill="#54486e" stroke="#54486e"/><path d="M2017,400L1962,596L1967,874Z" fill="#502259" stroke="#502259"/><path d="M2017,400L1967,874L1946,1104Z" fill="#31022f" stroke="#31022f"/><path d="M-142,577L-141,1054L-117,885Z" fill="#a280a1" stroke="#a280a1"/><path d="M-142,577L-117,885L80,569Z" fill="#ce96cf" stroke="#ce96cf"/><path d="M80,569L-117,885L146,879Z" fill="#af81b1" stroke="#af81b1"/><path d="M80,569L146,879L301,752Z" fill="#b483bb" stroke="#b483bb"/><path d="M80,569L301,752L341,537Z" fill="#bb95d2" stroke="#bb95d2"/><path d="M341,537L301,752L646,650Z" fill="#a983c6" stroke="#a983c6"/><path d="M646,650L301,752L575,817Z" fill="#946cad" stroke="#946cad"/><path d="M646,650L575,817L799,777Z" fill="#875aa3" stroke="#875aa3"/><path d="M646,650L799,777L857,643Z" fill="#945aad" stroke="#945aad"/><path d="M857,643L799,777L1085,745Z" fill="#8d439c" stroke="#8d439c"/><path d="M857,643L1085,745L1064,611Z" fill="#9444a4" stroke="#9444a4"/><path d="M1064,611L1085,745L1186,736Z" fill="#913098" stroke="#913098"/><path d="M1064,611L1186,736L1329,504Z" fill="#9335a0" stroke="#9335a0"/><path d="M1329,504L1186,736L1451,608Z" fill="#8a2992" stroke="#8a2992"/><path d="M1451,608L1186,736L1539,843Z" fill="#740f70" stroke="#740f70"/><path d="M1451,608L1539,843L1678,591Z" fill="#661666" stroke="#661666"/><path d="M1678,591L1539,843L1739,821Z" fill="#470946" stroke="#470946"/><path d="M1678,591L1739,821L1962,596Z" fill="#4f1951" stroke="#4f1951"/><path d="M1962,596L1739,821L1967,874Z" fill="#3a0738" stroke="#3a0738"/><path d="M-117,885L-141,1054L146,879Z" fill="#828084" stroke="#828084"/><path d="M146,879L-141,1054L197,1102Z" fill="#777b7d" stroke="#777b7d"/><path d="M146,879L197,1102L375,1032Z" fill="#6b7278" stroke="#6b7278"/><path d="M146,879L375,1032L301,752Z" fill="#7b708a" stroke="#7b708a"/><path d="M301,752L375,1032L575,817Z" fill="#75668b" stroke="#75668b"/><path d="M575,817L375,1032L554,1101Z" fill="#53616f" stroke="#53616f"/><path d="M575,817L554,1101L795,1054Z" fill="#4a5468" stroke="#4a5468"/><path d="M575,817L795,1054L799,777Z" fill="#5b4b78" stroke="#5b4b78"/><path d="M799,777L795,1054L1001,979Z" fill="#4b3b60" stroke="#4b3b60"/><path d="M799,777L1001,979L1085,745Z" fill="#6a2f79" stroke="#6a2f79"/><path d="M1085,745L1001,979L1186,736Z" fill="#6d2076" stroke="#6d2076"/><path d="M1186,736L1001,979L1231,1109Z" fill="#461a4e" stroke="#461a4e"/><path d="M1186,736L1231,1109L1539,843Z" fill="#4b0649" stroke="#4b0649"/><path d="M1539,843L1231,1109L1570,1095Z" fill="#270026" stroke="#270026"/><path d="M1539,843L1570,1095L1688,997Z" fill="#110012" stroke="#110012"/><path d="M1539,843L1688,997L1739,821Z" fill="#1d001e" stroke="#1d001e"/><path d="M1739,821L1688,997L1967,874Z" fill="#110011" stroke="#110011"/><path d="M1967,874L1688,997L1946,1104Z" fill="#000000" stroke="#000000"/><path d="M197,1102L1231,1109L554,1101Z" fill="#495267" stroke="#495267"/><path d="M197,1102L554,1101L375,1032Z" fill="#5f6973" stroke="#5f6973"/><path d="M554,1101L1231,1109L795,1054Z" fill="#463b5b" stroke="#463b5b"/><path d="M795,1054L1231,1109L1001,979Z" fill="#452a53" stroke="#452a53"/><path d="M1231,1109L1946,1104L1570,1095Z" fill="#140014" stroke="#140014"/><path d="M1570,1095L1946,1104L1688,997Z" fill="#000000" stroke="#000000"/></g></svg>