<svg width="1883" height="969" xmlns="http://www.w3.org/2000/svg"><g><path d="M-60,-127L-102,255L-24,107Z" fill="#feebec" stroke="#feebec"/><path d="M-60,-127L-24,107L35,88Z" fill="#feeeed" stroke="#feeeed"/><path d="M-60,-127L35,88L109,-20Z" fill="#feeeed" stroke="#feeeed"/><path d="M-60,-127L109,-20L229,-52Z" fill="#feebeb" stroke="#feebeb"/><path d="M-60,-127L229,-52L491,-125Z" fill="#fee4e7" stroke="#fee4e7"/><path d="M-60,-127L491,-125L787,-132Z" fill="#fddbe1" stroke="#fddbe1"/><path d="M109,-20L35,88L195,165Z" fill="#fee2e6" stroke="#fee2e6"/><path d="M109,-20L195,165L264,122Z" fill="#fedde3" stroke="#fedde3"/><path d="M109,-20L264,122L229,-52Z" fill="#fee4e7" stroke="#fee4e7"/><path d="M229,-52L264,122L341,-59Z" fill="#fee1e5" stroke="#fee1e5"/><path d="M229,-52L341,-59L491,-125Z" fill="#fddde3" stroke="#fddde3"/><path d="M341,-59L264,122L391,55Z" fill="#fddbe1" stroke="#fddbe1"/><path d="M341,-59L391,55L491,-125Z" fill="#fddbe1" stroke="#fddbe1"/><path d="M491,-125L391,55L528,32Z" fill="#fdd7df" stroke="#fdd7df"/><path d="M491,-125L528,32L644,34Z" fill="#fdd3dd" stroke="#fdd3dd"/><path d="M491,-125L644,34L713,-128Z" fill="#fdd0db" stroke="#fdd0db"/><path d="M491,-125L713,-128L787,-132Z" fill="#fbcbd9" stroke="#fbcbd9"/><path d="M713,-128L644,34L787,-132Z" fill="#f9c6d7" stroke="#f9c6d7"/><path d="M787,-132L644,34L821,125Z" fill="#f8c1d6" stroke="#f8c1d6"/><path d="M787,-132L821,125L920,-97Z" fill="#f4b9d3" stroke="#f4b9d3"/><path d="M787,-132L920,-97L1751,-131Z" fill="#e798c8" stroke="#e798c8"/><path d="M920,-97L821,125L1003,61Z" fill="#f1aece" stroke="#f1aece"/><path d="M920,-97L1003,61L1173,-46Z" fill="#eca5cc" stroke="#eca5cc"/><path d="M920,-97L1173,-46L1267,-51Z" fill="#e89bc9" stroke="#e89bc9"/><path d="M920,-97L1267,-51L1751,-131Z" fill="#e087c3" stroke="#e087c3"/><path d="M1173,-46L1003,61L1173,103Z" fill="#e898c7" stroke="#e898c7"/><path d="M1173,-46L1173,103L1226,34Z" fill="#e591c5" stroke="#e591c5"/><path d="M1173,-46L1226,34L1267,-51Z" fill="#e491c6" stroke="#e491c6"/><path d="M1267,-51L1226,34L1371,126Z" fill="#e186c2" stroke="#e186c2"/><path d="M1267,-51L1371,126L1461,-52Z" fill="#de81c0" stroke="#de81c0"/><path d="M1267,-51L1461,-52L1751,-131Z" fill="#d880bd" stroke="#d880bd"/><path d="M1461,-52L1371,126L1528,66Z" fill="#da7bbb" stroke="#da7bbb"/><path d="M1461,-52L1528,66L1554,-32Z" fill="#d780bc" stroke="#d780bc"/><path d="M1461,-52L1554,-32L1751,-131Z" fill="#d480b9" stroke="#d480b9"/><path d="M1554,-32L1528,66L1785,132Z" fill="#d37ab5" stroke="#d37ab5"/><path d="M1554,-32L1785,132L1751,-131Z" fill="#d080b6" stroke="#d080b6"/><path d="M1751,-131L1785,132L1848,28Z" fill="#cb7fb2" stroke="#cb7fb2"/><path d="M1751,-131L1848,28L1896,-96Z" fill="#ca80b1" stroke="#ca80b1"/><path d="M1751,-131L1896,-96L1978,-128Z" fill="#c880b0" stroke="#c880b0"/><path d="M1896,-96L1848,28L2016,65Z" fill="#c680ae" stroke="#c680ae"/><path d="M1896,-96L2016,65L1978,-128Z" fill="#c480ac" stroke="#c480ac"/><path d="M1978,-128L2016,65L2070,185Z" fill="#c27ca8" stroke="#c27ca8"/><path d="M-24,107L-102,255L45,275Z" fill="#fedce2" stroke="#fedce2"/><path d="M-24,107L45,275L35,88Z" fill="#fedfe4" stroke="#fedfe4"/><path d="M35,88L45,275L195,165Z" fill="#fedae1" stroke="#fedae1"/><path d="M264,122L195,165L320,335Z" fill="#fecdd9" stroke="#fecdd9"/><path d="M264,122L320,335L404,194Z" fill="#fdc9d7" stroke="#fdc9d7"/><path d="M264,122L404,194L391,55Z" fill="#fdd1dc" stroke="#fdd1dc"/><path d="M391,55L404,194L528,32Z" fill="#fdcfdb" stroke="#fdcfdb"/><path d="M528,32L404,194L567,241Z" fill="#fdc6d5" stroke="#fdc6d5"/><path d="M528,32L567,241L644,34Z" fill="#fdc7d6" stroke="#fdc7d6"/><path d="M644,34L567,241L709,250Z" fill="#fcbccf" stroke="#fcbccf"/><path d="M644,34L709,250L788,198Z" fill="#f9b6ce" stroke="#f9b6ce"/><path d="M644,34L788,198L821,125Z" fill="#f8b6cf" stroke="#f8b6cf"/><path d="M821,125L788,198L951,259Z" fill="#f3a4c7" stroke="#f3a4c7"/><path d="M821,125L951,259L1003,61Z" fill="#f0a1c7" stroke="#f0a1c7"/><path d="M1003,61L951,259L1125,265Z" fill="#ec92c1" stroke="#ec92c1"/><path d="M1003,61L1125,265L1173,103Z" fill="#e98fc2" stroke="#e98fc2"/><path d="M1173,103L1125,265L1283,188Z" fill="#e581bc" stroke="#e581bc"/><path d="M1173,103L1283,188L1226,34Z" fill="#e385bf" stroke="#e385bf"/><path d="M1226,34L1283,188L1371,126Z" fill="#e17ebc" stroke="#e17ebc"/><path d="M1371,126L1283,188L1436,189Z" fill="#de71b7" stroke="#de71b7"/><path d="M1371,126L1436,189L1528,66Z" fill="#da73b7" stroke="#da73b7"/><path d="M1528,66L1436,189L1618,198Z" fill="#d771b2" stroke="#d771b2"/><path d="M1528,66L1618,198L1785,132Z" fill="#d272af" stroke="#d272af"/><path d="M1785,132L1618,198L1720,233Z" fill="#cf6daa" stroke="#cf6daa"/><path d="M1785,132L1720,233L1830,322Z" fill="#cc69a5" stroke="#cc69a5"/><path d="M1785,132L1830,322L1933,204Z" fill="#c96aa3" stroke="#c96aa3"/><path d="M1785,132L1933,204L1848,28Z" fill="#c974a9" stroke="#c974a9"/><path d="M1848,28L1933,204L2016,65Z" fill="#c676a8" stroke="#c676a8"/><path d="M2016,65L1933,204L2070,185Z" fill="#c371a2" stroke="#c371a2"/><path d="M-102,255L-121,769L-97,384Z" fill="#fab2d2" stroke="#fab2d2"/><path d="M-102,255L-97,384L45,275Z" fill="#fed4dd" stroke="#fed4dd"/><path d="M45,275L-97,384L101,419Z" fill="#fdc6d7" stroke="#fdc6d7"/><path d="M45,275L101,419L283,379Z" fill="#fdbfd3" stroke="#fdbfd3"/><path d="M45,275L283,379L195,165Z" fill="#fecbd8" stroke="#fecbd8"/><path d="M195,165L283,379L320,335Z" fill="#fec4d4" stroke="#fec4d4"/><path d="M404,194L320,335L517,329Z" fill="#fdbdd0" stroke="#fdbdd0"/><path d="M404,194L517,329L567,241Z" fill="#fdbdcf" stroke="#fdbdcf"/><path d="M567,241L517,329L667,331Z" fill="#fdb4ca" stroke="#fdb4ca"/><path d="M567,241L667,331L709,250Z" fill="#fcb2c9" stroke="#fcb2c9"/><path d="M709,250L667,331L841,395Z" fill="#f8a3c3" stroke="#f8a3c3"/><path d="M709,250L841,395L788,198Z" fill="#f6a3c4" stroke="#f6a3c4"/><path d="M788,198L841,395L951,259Z" fill="#f39ac1" stroke="#f39ac1"/><path d="M951,259L841,395L955,380Z" fill="#f08bbb" stroke="#f08bbb"/><path d="M951,259L955,380L1098,327Z" fill="#ed87ba" stroke="#ed87ba"/><path d="M951,259L1098,327L1125,265Z" fill="#eb85bb" stroke="#eb85bb"/><path d="M1125,265L1098,327L1260,402Z" fill="#e675b4" stroke="#e675b4"/><path d="M1125,265L1260,402L1283,188Z" fill="#e474b5" stroke="#e474b5"/><path d="M1283,188L1260,402L1374,344Z" fill="#e068b0" stroke="#e068b0"/><path d="M1283,188L1374,344L1436,189Z" fill="#de6ab3" stroke="#de6ab3"/><path d="M1436,189L1374,344L1530,402Z" fill="#da60ab" stroke="#da60ab"/><path d="M1436,189L1530,402L1618,198Z" fill="#d765ab" stroke="#d765ab"/><path d="M1618,198L1530,402L1720,233Z" fill="#d364a7" stroke="#d364a7"/><path d="M1720,233L1530,402L1780,378Z" fill="#d05ca2" stroke="#d05ca2"/><path d="M1720,233L1780,378L1830,322Z" fill="#cc60a0" stroke="#cc60a0"/><path d="M1933,204L1830,322L2075,425Z" fill="#c5609a" stroke="#c5609a"/><path d="M1933,204L2075,425L2070,185Z" fill="#c2649a" stroke="#c2649a"/><path d="M-97,384L-121,769L-56,532Z" fill="#f79acb" stroke="#f79acb"/><path d="M-97,384L-56,532L80,482Z" fill="#faaed0" stroke="#faaed0"/><path d="M-97,384L80,482L101,419Z" fill="#fbb4d1" stroke="#fbb4d1"/><path d="M101,419L80,482L254,541Z" fill="#f9a2ca" stroke="#f9a2ca"/><path d="M101,419L254,541L283,379Z" fill="#faa7ca" stroke="#faa7ca"/><path d="M283,379L254,541L412,549Z" fill="#f897c3" stroke="#f897c3"/><path d="M283,379L412,549L320,335Z" fill="#faa6c8" stroke="#faa6c8"/><path d="M320,335L412,549L517,329Z" fill="#fba6c7" stroke="#fba6c7"/><path d="M517,329L412,549L534,516Z" fill="#f994c0" stroke="#f994c0"/><path d="M517,329L534,516L667,331Z" fill="#fba1c3" stroke="#fba1c3"/><path d="M667,331L534,516L679,545Z" fill="#f88dbb" stroke="#f88dbb"/><path d="M667,331L679,545L841,395Z" fill="#f58cbb" stroke="#f58cbb"/><path d="M841,395L679,545L873,539Z" fill="#f074b3" stroke="#f074b3"/><path d="M841,395L873,539L918,484Z" fill="#ee70b2" stroke="#ee70b2"/><path d="M841,395L918,484L955,380Z" fill="#ee7bb5" stroke="#ee7bb5"/><path d="M955,380L918,484L1170,494Z" fill="#e867af" stroke="#e867af"/><path d="M955,380L1170,494L1098,327Z" fill="#e76db1" stroke="#e76db1"/><path d="M1098,327L1170,494L1260,402Z" fill="#e361ad" stroke="#e361ad"/><path d="M1260,402L1170,494L1234,580Z" fill="#df48a5" stroke="#df48a5"/><path d="M1260,402L1234,580L1424,570Z" fill="#da39a0" stroke="#da39a0"/><path d="M1260,402L1424,570L1374,344Z" fill="#db47a4" stroke="#db47a4"/><path d="M1374,344L1424,570L1530,402Z" fill="#d743a1" stroke="#d743a1"/><path d="M1530,402L1424,570L1522,572Z" fill="#d2319a" stroke="#d2319a"/><path d="M1530,402L1522,572L1747,550Z" fill="#ce3396" stroke="#ce3396"/><path d="M1530,402L1747,550L1780,378Z" fill="#cd4299" stroke="#cd4299"/><path d="M1780,378L1747,550L1902,493Z" fill="#c63b92" stroke="#c63b92"/><path d="M1780,378L1902,493L1830,322Z" fill="#c74d97" stroke="#c74d97"/><path d="M1830,322L1902,493L2075,425Z" fill="#c34a92" stroke="#c34a92"/><path d="M2075,425L1902,493L2057,529Z" fill="#bd398a" stroke="#bd398a"/><path d="M2075,425L2057,529L2046,1029Z" fill="#b60e7b" stroke="#b60e7b"/><path d="M-56,532L-121,769L-58,733Z" fill="#f37ec1" stroke="#f37ec1"/><path d="M-56,532L-58,733L29,636Z" fill="#f586c3" stroke="#f586c3"/><path d="M-56,532L29,636L80,482Z" fill="#f798c8" stroke="#f798c8"/><path d="M80,482L29,636L254,541Z" fill="#f792c4" stroke="#f792c4"/><path d="M254,541L29,636L206,710Z" fill="#f47dbd" stroke="#f47dbd"/><path d="M254,541L206,710L405,710Z" fill="#f471b7" stroke="#f471b7"/><path d="M254,541L405,710L412,549Z" fill="#f57ab9" stroke="#f57ab9"/><path d="M412,549L405,710L477,634Z" fill="#f46fb4" stroke="#f46fb4"/><path d="M412,549L477,634L534,516Z" fill="#f67cb8" stroke="#f67cb8"/><path d="M534,516L477,634L680,679Z" fill="#f46db2" stroke="#f46db2"/><path d="M534,516L680,679L679,545Z" fill="#f571b2" stroke="#f571b2"/><path d="M679,545L680,679L767,660Z" fill="#f05dab" stroke="#f05dab"/><path d="M679,545L767,660L873,539Z" fill="#ef61ad" stroke="#ef61ad"/><path d="M873,539L767,660L953,643Z" fill="#ea50a7" stroke="#ea50a7"/><path d="M873,539L953,643L918,484Z" fill="#ea59aa" stroke="#ea59aa"/><path d="M918,484L953,643L1170,494Z" fill="#e652a8" stroke="#e652a8"/><path d="M1170,494L953,643L1109,682Z" fill="#e13ba0" stroke="#e13ba0"/><path d="M1170,494L1109,682L1234,580Z" fill="#de379f" stroke="#de379f"/><path d="M1234,580L1109,682L1285,622Z" fill="#db299a" stroke="#db299a"/><path d="M1234,580L1285,622L1424,570Z" fill="#d7279a" stroke="#d7279a"/><path d="M1424,570L1285,622L1478,645Z" fill="#d31a95" stroke="#d31a95"/><path d="M1424,570L1478,645L1522,572Z" fill="#d01e94" stroke="#d01e94"/><path d="M1522,572L1478,645L1532,619Z" fill="#ce1a91" stroke="#ce1a91"/><path d="M1522,572L1532,619L1747,550Z" fill="#cc2291" stroke="#cc2291"/><path d="M1747,550L1532,619L1705,684Z" fill="#c8198c" stroke="#c8198c"/><path d="M1747,550L1705,684L1829,664Z" fill="#c31587" stroke="#c31587"/><path d="M1747,550L1829,664L1902,493Z" fill="#c3248a" stroke="#c3248a"/><path d="M1902,493L1829,664L1993,699Z" fill="#be1883" stroke="#be1883"/><path d="M1902,493L1993,699L2057,529Z" fill="#bb2384" stroke="#bb2384"/><path d="M2057,529L1993,699L2023,777Z" fill="#b70c7b" stroke="#b70c7b"/><path d="M2057,529L2023,777L2046,1029Z" fill="#b30072" stroke="#b30072"/><path d="M-58,733L-121,769L116,812Z" fill="#f071b7" stroke="#f071b7"/><path d="M-58,733L116,812L29,636Z" fill="#f26fb9" stroke="#f26fb9"/><path d="M29,636L116,812L206,710Z" fill="#f16ab7" stroke="#f16ab7"/><path d="M206,710L116,812L213,778Z" fill="#f067b2" stroke="#f067b2"/><path d="M206,710L213,778L405,710Z" fill="#f162b1" stroke="#f162b1"/><path d="M405,710L213,778L393,842Z" fill="#ef5fac" stroke="#ef5fac"/><path d="M405,710L393,842L535,831Z" fill="#ef59a7" stroke="#ef59a7"/><path d="M405,710L535,831L477,634Z" fill="#f158ab" stroke="#f158ab"/><path d="M477,634L535,831L680,679Z" fill="#f154a9" stroke="#f154a9"/><path d="M680,679L535,831L677,794Z" fill="#ef4fa3" stroke="#ef4fa3"/><path d="M680,679L677,794L767,660Z" fill="#ed49a5" stroke="#ed49a5"/><path d="M767,660L677,794L808,883Z" fill="#ea439e" stroke="#ea439e"/><path d="M767,660L808,883L1006,778Z" fill="#e5379a" stroke="#e5379a"/><path d="M767,660L1006,778L953,643Z" fill="#e5389f" stroke="#e5389f"/><path d="M953,643L1006,778L1109,682Z" fill="#e12b9b" stroke="#e12b9b"/><path d="M1109,682L1006,778L1164,778Z" fill="#dc1f95" stroke="#dc1f95"/><path d="M1109,682L1164,778L1285,622Z" fill="#da1b96" stroke="#da1b96"/><path d="M1285,622L1164,778L1299,842Z" fill="#d60e8f" stroke="#d60e8f"/><path d="M1285,622L1299,842L1465,802Z" fill="#d1048b" stroke="#d1048b"/><path d="M1285,622L1465,802L1478,645Z" fill="#d0078e" stroke="#d0078e"/><path d="M1478,645L1465,802L1623,815Z" fill="#c90086" stroke="#c90086"/><path d="M1478,645L1623,815L1532,619Z" fill="#cb0689" stroke="#cb0689"/><path d="M1532,619L1623,815L1705,684Z" fill="#c70386" stroke="#c70386"/><path d="M1705,684L1623,815L1719,825Z" fill="#c2007e" stroke="#c2007e"/><path d="M1705,684L1719,825L1829,664Z" fill="#c10080" stroke="#c10080"/><path d="M1829,664L1719,825L1907,838Z" fill="#bc0079" stroke="#bc0079"/><path d="M1829,664L1907,838L1993,699Z" fill="#ba007a" stroke="#ba007a"/><path d="M1993,699L1907,838L2023,777Z" fill="#b60075" stroke="#b60075"/><path d="M-121,769L-99,1017L116,812Z" fill="#ed72b0" stroke="#ed72b0"/><path d="M116,812L-99,1017L123,977Z" fill="#eb6ea8" stroke="#eb6ea8"/><path d="M116,812L123,977L194,920Z" fill="#ec69a8" stroke="#ec69a8"/><path d="M116,812L194,920L213,778Z" fill="#ee67ac" stroke="#ee67ac"/><path d="M213,778L194,920L327,959Z" fill="#ec64a5" stroke="#ec64a5"/><path d="M213,778L327,959L393,842Z" fill="#ed60a6" stroke="#ed60a6"/><path d="M393,842L327,959L528,918Z" fill="#eb5b9e" stroke="#eb5b9e"/><path d="M393,842L528,918L535,831Z" fill="#ed57a0" stroke="#ed57a0"/><path d="M535,831L528,918L677,794Z" fill="#ed529e" stroke="#ed529e"/><path d="M677,794L528,918L690,1026Z" fill="#ea4f97" stroke="#ea4f97"/><path d="M677,794L690,1026L808,883Z" fill="#e74695" stroke="#e74695"/><path d="M808,883L690,1026L853,1019Z" fill="#e23f8d" stroke="#e23f8d"/><path d="M808,883L853,1019L1034,1002Z" fill="#dd3389" stroke="#dd3389"/><path d="M808,883L1034,1002L1006,778Z" fill="#de2e8e" stroke="#de2e8e"/><path d="M1006,778L1034,1002L1133,964Z" fill="#d82389" stroke="#d82389"/><path d="M1006,778L1133,964L1164,778Z" fill="#d91e8d" stroke="#d91e8d"/><path d="M1164,778L1133,964L1299,842Z" fill="#d41488" stroke="#d41488"/><path d="M1299,842L1133,964L1333,977Z" fill="#d00e81" stroke="#d00e81"/><path d="M1299,842L1333,977L1406,949Z" fill="#cc047e" stroke="#cc047e"/><path d="M1299,842L1406,949L1465,802Z" fill="#cc0081" stroke="#cc0081"/><path d="M1465,802L1406,949L1529,986Z" fill="#c7007b" stroke="#c7007b"/><path d="M1465,802L1529,986L1623,815Z" fill="#c5007c" stroke="#c5007c"/><path d="M1623,815L1529,986L1676,1015Z" fill="#c00074" stroke="#c00074"/><path d="M1623,815L1676,1015L1719,825Z" fill="#bf0076" stroke="#bf0076"/><path d="M1719,825L1676,1015L1901,1017Z" fill="#b9006d" stroke="#b9006d"/><path d="M1719,825L1901,1017L1907,838Z" fill="#b8006f" stroke="#b8006f"/><path d="M1907,838L1901,1017L2046,1029Z" fill="#b10066" stroke="#b10066"/><path d="M1907,838L2046,1029L2023,777Z" fill="#b2006b" stroke="#b2006b"/><path d="M-99,1017L-31,1119L123,977Z" fill="#e870a1" stroke="#e870a1"/><path d="M123,977L-31,1119L176,1098Z" fill="#e76c9c" stroke="#e76c9c"/><path d="M123,977L176,1098L194,920Z" fill="#e9689f" stroke="#e9689f"/><path d="M194,920L176,1098L327,959Z" fill="#e9649d" stroke="#e9649d"/><path d="M327,959L176,1098L379,1184Z" fill="#e66194" stroke="#e66194"/><path d="M327,959L379,1184L506,1134Z" fill="#e55b90" stroke="#e55b90"/><path d="M327,959L506,1134L528,918Z" fill="#e85995" stroke="#e85995"/><path d="M528,918L506,1134L690,1026Z" fill="#e75290" stroke="#e75290"/><path d="M690,1026L506,1134L728,1154Z" fill="#e44e87" stroke="#e44e87"/><path d="M690,1026L728,1154L853,1019Z" fill="#e04286" stroke="#e04286"/><path d="M853,1019L728,1154L805,1168Z" fill="#dd3e82" stroke="#dd3e82"/><path d="M853,1019L805,1168L936,1068Z" fill="#db3781" stroke="#db3781"/><path d="M853,1019L936,1068L1034,1002Z" fill="#da2f83" stroke="#da2f83"/><path d="M1034,1002L936,1068L1121,1157Z" fill="#d4257c" stroke="#d4257c"/><path d="M1034,1002L1121,1157L1133,964Z" fill="#d31f7d" stroke="#d31f7d"/><path d="M1133,964L1121,1157L1331,1107Z" fill="#cd1477" stroke="#cd1477"/><path d="M1133,964L1331,1107L1333,977Z" fill="#cc0d79" stroke="#cc0d79"/><path d="M1333,977L1331,1107L1376,1100Z" fill="#c70473" stroke="#c70473"/><path d="M1333,977L1376,1100L1406,949Z" fill="#c80276" stroke="#c80276"/><path d="M1406,949L1376,1100L1529,986Z" fill="#c50074" stroke="#c50074"/><path d="M1529,986L1376,1100L1544,1089Z" fill="#c2006e" stroke="#c2006e"/><path d="M1529,986L1544,1089L1676,1015Z" fill="#be006d" stroke="#be006d"/><path d="M1676,1015L1544,1089L1667,1143Z" fill="#bb0067" stroke="#bb0067"/><path d="M1676,1015L1667,1143L1899,1138Z" fill="#b50062" stroke="#b50062"/><path d="M1676,1015L1899,1138L1901,1017Z" fill="#b40063" stroke="#b40063"/><path d="M1901,1017L1899,1138L1995,1133Z" fill="#ae005c" stroke="#ae005c"/><path d="M1901,1017L1995,1133L2046,1029Z" fill="#ad005d" stroke="#ad005d"/><path d="M-31,1119L51,1184L176,1098Z" fill="#e56d97" stroke="#e56d97"/><path d="M51,1184L379,1184L176,1098Z" fill="#e46691" stroke="#e46691"/><path d="M379,1184L1899,1138L805,1168Z" fill="#d22676" stroke="#d22676"/><path d="M379,1184L805,1168L728,1154Z" fill="#e24f82" stroke="#e24f82"/><path d="M379,1184L728,1154L506,1134Z" fill="#e35487" stroke="#e35487"/><path d="M805,1168L1899,1138L1667,1143Z" fill="#c00068" stroke="#c00068"/><path d="M805,1168L1667,1143L1121,1157Z" fill="#cb1470" stroke="#cb1470"/><path d="M805,1168L1121,1157L936,1068Z" fill="#d62d7b" stroke="#d62d7b"/><path d="M1121,1157L1667,1143L1331,1107Z" fill="#c4016c" stroke="#c4016c"/><path d="M1331,1107L1667,1143L1376,1100Z" fill="#c1006a" stroke="#c1006a"/><path d="M1376,1100L1667,1143L1544,1089Z" fill="#be0068" stroke="#be0068"/></g></svg>