<svg width="1632" height="948" xmlns="http://www.w3.org/2000/svg"><g><path d="M-61,-76L-124,156L64,70Z" fill="#f4fdff" stroke="#f4fdff"/><path d="M-61,-76L64,70L168,-127Z" fill="#f1fafb" stroke="#f1fafb"/><path d="M-61,-76L168,-127L279,-170Z" fill="#ebf7f8" stroke="#ebf7f8"/><path d="M168,-127L64,70L312,66Z" fill="#e5f6f6" stroke="#e5f6f6"/><path d="M168,-127L312,66L279,-170Z" fill="#dff3f4" stroke="#dff3f4"/><path d="M279,-170L312,66L446,-60Z" fill="#d7f0ef" stroke="#d7f0ef"/><path d="M279,-170L446,-60L740,-79Z" fill="#c6e9e1" stroke="#c6e9e1"/><path d="M279,-170L740,-79L847,-127Z" fill="#b6e2d5" stroke="#b6e2d5"/><path d="M279,-170L847,-127L1463,-137Z" fill="#a0d6bc" stroke="#a0d6bc"/><path d="M446,-60L312,66L551,121Z" fill="#c7ebe6" stroke="#c7ebe6"/><path d="M446,-60L551,121L740,-79Z" fill="#bbe4d9" stroke="#bbe4d9"/><path d="M740,-79L551,121L700,95Z" fill="#ade0d1" stroke="#ade0d1"/><path d="M740,-79L700,95L970,138Z" fill="#9fd9c2" stroke="#9fd9c2"/><path d="M740,-79L970,138L847,-127Z" fill="#a1d7bd" stroke="#a1d7bd"/><path d="M847,-127L970,138L1060,-34Z" fill="#98d2b1" stroke="#98d2b1"/><path d="M847,-127L1060,-34L1235,-107Z" fill="#91cbaa" stroke="#91cbaa"/><path d="M847,-127L1235,-107L1463,-137Z" fill="#88c09f" stroke="#88c09f"/><path d="M1060,-34L970,138L1141,107Z" fill="#89caa9" stroke="#89caa9"/><path d="M1060,-34L1141,107L1249,39Z" fill="#86c3a2" stroke="#86c3a2"/><path d="M1060,-34L1249,39L1235,-107Z" fill="#88c09f" stroke="#88c09f"/><path d="M1235,-107L1249,39L1463,-137Z" fill="#80b595" stroke="#80b595"/><path d="M1463,-137L1249,39L1500,48Z" fill="#80ae8e" stroke="#80ae8e"/><path d="M1463,-137L1500,48L1676,-77Z" fill="#80a383" stroke="#80a383"/><path d="M1463,-137L1676,-77L1952,-94Z" fill="#809680" stroke="#809680"/><path d="M1676,-77L1500,48L1739,30Z" fill="#809b80" stroke="#809b80"/><path d="M1676,-77L1739,30L1952,-94Z" fill="#808f80" stroke="#808f80"/><path d="M1952,-94L1739,30L1942,104Z" fill="#7e8880" stroke="#7e8880"/><path d="M1952,-94L1942,104L1950,885Z" fill="#507b6f" stroke="#507b6f"/><path d="M-124,156L-169,904L-34,437Z" fill="#a6e7c8" stroke="#a6e7c8"/><path d="M-124,156L-34,437L-35,358Z" fill="#c8f6eb" stroke="#c8f6eb"/><path d="M-124,156L-35,358L61,267Z" fill="#d3f8f4" stroke="#d3f8f4"/><path d="M-124,156L61,267L64,70Z" fill="#e4fcfd" stroke="#e4fcfd"/><path d="M64,70L61,267L312,66Z" fill="#daf7f8" stroke="#daf7f8"/><path d="M312,66L61,267L351,288Z" fill="#c7f3f2" stroke="#c7f3f2"/><path d="M312,66L351,288L551,121Z" fill="#beede9" stroke="#beede9"/><path d="M551,121L351,288L534,353Z" fill="#a2e5d8" stroke="#a2e5d8"/><path d="M551,121L534,353L674,237Z" fill="#99e1d1" stroke="#99e1d1"/><path d="M551,121L674,237L700,95Z" fill="#a3e1d3" stroke="#a3e1d3"/><path d="M700,95L674,237L963,247Z" fill="#91dbc4" stroke="#91dbc4"/><path d="M700,95L963,247L970,138Z" fill="#8dd6ba" stroke="#8dd6ba"/><path d="M970,138L963,247L1104,235Z" fill="#7acdaa" stroke="#7acdaa"/><path d="M970,138L1104,235L1141,107Z" fill="#7ec9a8" stroke="#7ec9a8"/><path d="M1141,107L1104,235L1317,239Z" fill="#71bf9e" stroke="#71bf9e"/><path d="M1141,107L1317,239L1249,39Z" fill="#76bc9b" stroke="#76bc9b"/><path d="M1249,39L1317,239L1500,48Z" fill="#73b292" stroke="#73b292"/><path d="M1500,48L1317,239L1449,375Z" fill="#63ab88" stroke="#63ab88"/><path d="M1500,48L1449,375L1727,367Z" fill="#599d76" stroke="#599d76"/><path d="M1500,48L1727,367L1739,30Z" fill="#6f9a80" stroke="#6f9a80"/><path d="M1739,30L1727,367L1942,104Z" fill="#6d8e80" stroke="#6d8e80"/><path d="M1942,104L1727,367L1894,355Z" fill="#568472" stroke="#568472"/><path d="M1942,104L1894,355L1895,558Z" fill="#467c69" stroke="#467c69"/><path d="M1942,104L1895,558L1925,766Z" fill="#2b6f4d" stroke="#2b6f4d"/><path d="M1942,104L1925,766L1950,885Z" fill="#186136" stroke="#186136"/><path d="M-35,358L-34,437L84,500Z" fill="#a9ead4" stroke="#a9ead4"/><path d="M-35,358L84,500L61,267Z" fill="#b1efdf" stroke="#b1efdf"/><path d="M61,267L84,500L241,461Z" fill="#a2e8d4" stroke="#a2e8d4"/><path d="M61,267L241,461L351,288Z" fill="#a9ebde" stroke="#a9ebde"/><path d="M351,288L241,461L501,453Z" fill="#8de1cb" stroke="#8de1cb"/><path d="M351,288L501,453L534,353Z" fill="#89dfc9" stroke="#89dfc9"/><path d="M534,353L501,453L716,546Z" fill="#6bd1ab" stroke="#6bd1ab"/><path d="M534,353L716,546L674,237Z" fill="#71d5b5" stroke="#71d5b5"/><path d="M674,237L716,546L853,553Z" fill="#5bca9c" stroke="#5bca9c"/><path d="M674,237L853,553L963,247Z" fill="#68cea7" stroke="#68cea7"/><path d="M963,247L853,553L1082,529Z" fill="#48bf85" stroke="#48bf85"/><path d="M963,247L1082,529L1104,235Z" fill="#58c293" stroke="#58c293"/><path d="M1104,235L1082,529L1317,239Z" fill="#51b88a" stroke="#51b88a"/><path d="M1317,239L1082,529L1319,567Z" fill="#35a96f" stroke="#35a96f"/><path d="M1317,239L1319,567L1449,375Z" fill="#3aa471" stroke="#3aa471"/><path d="M1449,375L1319,567L1552,559Z" fill="#279353" stroke="#279353"/><path d="M1449,375L1552,559L1730,432Z" fill="#2f8d53" stroke="#2f8d53"/><path d="M1449,375L1730,432L1727,367Z" fill="#3b8e60" stroke="#3b8e60"/><path d="M1727,367L1730,432L1894,355Z" fill="#3c8361" stroke="#3c8361"/><path d="M1894,355L1730,432L1895,558Z" fill="#307853" stroke="#307853"/><path d="M-34,437L-169,904L-72,736Z" fill="#88cba4" stroke="#88cba4"/><path d="M-34,437L-72,736L84,500Z" fill="#93deb9" stroke="#93deb9"/><path d="M84,500L-72,736L123,725Z" fill="#81cda7" stroke="#81cda7"/><path d="M84,500L123,725L241,461Z" fill="#84d8b2" stroke="#84d8b2"/><path d="M241,461L123,725L368,722Z" fill="#72caa2" stroke="#72caa2"/><path d="M241,461L368,722L475,635Z" fill="#6acaa0" stroke="#6acaa0"/><path d="M241,461L475,635L501,453Z" fill="#74d3ae" stroke="#74d3ae"/><path d="M501,453L475,635L716,546Z" fill="#5cc999" stroke="#5cc999"/><path d="M716,546L475,635L631,762Z" fill="#48b783" stroke="#48b783"/><path d="M716,546L631,762L853,553Z" fill="#3fb57a" stroke="#3fb57a"/><path d="M853,553L631,762L956,684Z" fill="#31aa6a" stroke="#31aa6a"/><path d="M853,553L956,684L1082,529Z" fill="#2faf67" stroke="#2faf67"/><path d="M1082,529L956,684L1159,673Z" fill="#22a158" stroke="#22a158"/><path d="M1082,529L1159,673L1245,657Z" fill="#1d9a52" stroke="#1d9a52"/><path d="M1082,529L1245,657L1319,567Z" fill="#1e9c53" stroke="#1e9c53"/><path d="M1319,567L1245,657L1499,764Z" fill="#0d843c" stroke="#0d843c"/><path d="M1319,567L1499,764L1552,559Z" fill="#128139" stroke="#128139"/><path d="M1552,559L1499,764L1704,716Z" fill="#0b6e27" stroke="#0b6e27"/><path d="M1552,559L1704,716L1730,432Z" fill="#1a7a39" stroke="#1a7a39"/><path d="M1730,432L1704,716L1895,558Z" fill="#1a7139" stroke="#1a7139"/><path d="M1895,558L1704,716L1925,766Z" fill="#0b5927" stroke="#0b5927"/><path d="M-72,736L-169,904L119,918Z" fill="#7aaf8a" stroke="#7aaf8a"/><path d="M-72,736L119,918L123,725Z" fill="#72b690" stroke="#72b690"/><path d="M123,725L119,918L321,888Z" fill="#66a983" stroke="#66a983"/><path d="M123,725L321,888L368,722Z" fill="#5eb18a" stroke="#5eb18a"/><path d="M368,722L321,888L524,935Z" fill="#509f75" stroke="#509f75"/><path d="M368,722L524,935L631,762Z" fill="#44a173" stroke="#44a173"/><path d="M368,722L631,762L475,635Z" fill="#4db384" stroke="#4db384"/><path d="M631,762L524,935L671,948Z" fill="#38905c" stroke="#38905c"/><path d="M631,762L671,948L935,959Z" fill="#2b884d" stroke="#2b884d"/><path d="M631,762L935,959L956,684Z" fill="#239251" stroke="#239251"/><path d="M956,684L935,959L1102,874Z" fill="#15833b" stroke="#15833b"/><path d="M956,684L1102,874L1159,673Z" fill="#128d45" stroke="#128d45"/><path d="M1159,673L1102,874L1245,657Z" fill="#0d873f" stroke="#0d873f"/><path d="M1245,657L1102,874L1358,883Z" fill="#05762e" stroke="#05762e"/><path d="M1245,657L1358,883L1499,764Z" fill="#00712a" stroke="#00712a"/><path d="M1499,764L1358,883L1486,844Z" fill="#00601a" stroke="#00601a"/><path d="M1499,764L1486,844L1704,716Z" fill="#00601a" stroke="#00601a"/><path d="M1704,716L1486,844L1737,910Z" fill="#005110" stroke="#005110"/><path d="M1704,716L1737,910L1925,766Z" fill="#004a14" stroke="#004a14"/><path d="M1925,766L1737,910L1950,885Z" fill="#003a0b" stroke="#003a0b"/><path d="M-169,904L-149,1068L119,918Z" fill="#7d9d80" stroke="#7d9d80"/><path d="M119,918L-149,1068L127,1146Z" fill="#748d7d" stroke="#748d7d"/><path d="M119,918L127,1146L260,1114Z" fill="#688677" stroke="#688677"/><path d="M119,918L260,1114L321,888Z" fill="#629275" stroke="#629275"/><path d="M321,888L260,1114L429,1160Z" fill="#588170" stroke="#588170"/><path d="M321,888L429,1160L524,935Z" fill="#4e8668" stroke="#4e8668"/><path d="M524,935L429,1160L651,1143Z" fill="#41735d" stroke="#41735d"/><path d="M524,935L651,1143L671,948Z" fill="#387b56" stroke="#387b56"/><path d="M671,948L651,1143L868,1074Z" fill="#2c6d4a" stroke="#2c6d4a"/><path d="M671,948L868,1074L935,959Z" fill="#247340" stroke="#247340"/><path d="M935,959L868,1074L1173,1031Z" fill="#15662f" stroke="#15662f"/><path d="M935,959L1173,1031L1102,874Z" fill="#106a29" stroke="#106a29"/><path d="M1102,874L1173,1031L1358,883Z" fill="#07631e" stroke="#07631e"/><path d="M1358,883L1173,1031L1295,1122Z" fill="#025019" stroke="#025019"/><path d="M1358,883L1295,1122L1460,1047Z" fill="#004711" stroke="#004711"/><path d="M1358,883L1460,1047L1486,844Z" fill="#00520c" stroke="#00520c"/><path d="M1486,844L1460,1047L1626,1031Z" fill="#004205" stroke="#004205"/><path d="M1486,844L1626,1031L1737,910Z" fill="#004300" stroke="#004300"/><path d="M1737,910L1626,1031L1856,1092Z" fill="#002b00" stroke="#002b00"/><path d="M1737,910L1856,1092L1950,885Z" fill="#002a00" stroke="#002a00"/><path d="M127,1146L429,1160L260,1114Z" fill="#5e7573" stroke="#5e7573"/><path d="M429,1160L1295,1122L651,1143Z" fill="#275c44" stroke="#275c44"/><path d="M651,1143L1295,1122L868,1074Z" fill="#1a5934" stroke="#1a5934"/><path d="M868,1074L1295,1122L1173,1031Z" fill="#0d5325" stroke="#0d5325"/><path d="M1295,1122L1856,1092L1626,1031Z" fill="#002b00" stroke="#002b00"/><path d="M1295,1122L1626,1031L1460,1047Z" fill="#00380a" stroke="#00380a"/></g></svg>